<svg xmlns="http://www.w3.org/2000/svg" xmlns:xlink="http://www.w3.org/1999/xlink" width="240.187" height="59.556" viewBox="0 0 240.187 59.556">
  <defs>
    <linearGradient id="linear-gradient" x1="1.083" y1="0.442" x2="0" y2="0.781" gradientUnits="objectBoundingBox">
      <stop offset="0" stop-color="#3ee5ac"/>
      <stop offset="1" stop-color="#108f64"/>
    </linearGradient>
  </defs>
  <g id="Group_202" data-name="Group 202" transform="translate(3022.192 1541.032)">
    <path id="Path_14203" data-name="Path 14203" d="M1098.98,315.228l4.438,18.977-5.409,1.31-2.113-9-2.916,10.143-14.919-16.525,5.536-1.311,7.269,8.326,2.662-10.65Zm-22.484,5.24,3.719,4.142h.042l-9.424,2.282,2.028,9.593,14.961-3.55,3.635,4.058-18.343,4.184-4.775,1.1-4.058-19.019Zm7.413-21.5q-1.037,0-2.088.072a29.778,29.778,0,1,0,2.088-.072Z" transform="translate(-3895.673 -1840)" fill-rule="evenodd" fill="url(#linear-gradient)"/>
    <path id="Path_14204" data-name="Path 14204" d="M746.638,328.958h-.454a11.033,11.033,0,1,0,.076,22.066h.155a10.855,10.855,0,0,0,5.579-1.522,10.333,10.333,0,0,0,3.719-3.676.275.275,0,0,0-.084-.381l-4.184-2.409a.245.245,0,0,0-.137-.043.279.279,0,0,0-.244.169,4.771,4.771,0,0,1-1.775,1.775,5.851,5.851,0,0,1-2.7.681h-.372a5.453,5.453,0,0,1-3.863-1.608,5.543,5.543,0,0,1-1.605-4.058,5.472,5.472,0,0,1,1.605-4.1,5.276,5.276,0,0,1,3.852-1.609h.163a5.583,5.583,0,0,1,2.832.76,4.484,4.484,0,0,1,1.775,1.775.336.336,0,0,0,.279.143.324.324,0,0,0,.1-.016l4.184-2.409a.276.276,0,0,0,.085-.381,9.328,9.328,0,0,0-3.677-3.677,10.284,10.284,0,0,0-5.309-1.479Z" transform="translate(-3757.38 -1853.014)" fill="#011111" fill-rule="evenodd"/>
    <path id="Path_14205" data-name="Path 14205" d="M776.821,315.224c-.169,0-.3.085-.3.254v28.7a.288.288,0,0,0,.3.3h4.818a.288.288,0,0,0,.3-.3V333.187A5.316,5.316,0,0,1,783.2,329.3a4.448,4.448,0,0,1,3.18-1.313h.323a4.125,4.125,0,0,1,2.836,1.1,4.315,4.315,0,0,1,1.141,3.212v11.876a.283.283,0,0,0,.254.3h4.86a.282.282,0,0,0,.254-.3V331.623a8.681,8.681,0,0,0-2.239-6.339,7.606,7.606,0,0,0-5.5-2.284h-.161a7.117,7.117,0,0,0-5.706,2.282.276.276,0,0,1-.218.107.283.283,0,0,1-.289-.276v-9.636c0-.169-.126-.254-.3-.254Z" transform="translate(-3775.236 -1847.054)" fill="#011111" fill-rule="evenodd"/>
    <path id="Path_14206" data-name="Path 14206" d="M828.528,334.116a5.7,5.7,0,0,1,4.028,1.65,5.8,5.8,0,0,1,1.648,4.226,5.872,5.872,0,0,1-1.648,4.227,5.7,5.7,0,0,1-4.028,1.65h-.309a5.674,5.674,0,0,1-3.989-1.65,6.365,6.365,0,0,1,0-8.453,5.674,5.674,0,0,1,3.989-1.65h.309Zm-1.313-5.155a9.4,9.4,0,0,0-7,3.171,11.8,11.8,0,0,0,0,15.721,9.541,9.541,0,0,0,7.143,3.17,8.217,8.217,0,0,0,6.34-2.536.255.255,0,0,1,.183-.077.285.285,0,0,1,.282.289v1.437a.288.288,0,0,0,.3.3h4.818a.289.289,0,0,0,.3-.3V329.807a.29.29,0,0,0-.3-.3h-4.818a.289.289,0,0,0-.3.3v1.479a.249.249,0,0,1-.257.257.294.294,0,0,1-.208-.088,8.338,8.338,0,0,0-6.34-2.494Z" transform="translate(-3792.89 -1853.015)" fill="#011111" fill-rule="evenodd"/>
    <path id="Path_14207" data-name="Path 14207" d="M877.331,328.952c-.1,0-.193,0-.29.006a7.089,7.089,0,0,0-5.747,2.282.277.277,0,0,1-.219.107.283.283,0,0,1-.289-.276V329.8a.289.289,0,0,0-.3-.3h-4.818a.289.289,0,0,0-.3.3v20.328a.289.289,0,0,0,.3.3h4.818a.288.288,0,0,0,.3-.3V339.144a5.315,5.315,0,0,1,1.268-3.888,4.449,4.449,0,0,1,3.18-1.313h.324a4.123,4.123,0,0,1,2.835,1.1,4.313,4.313,0,0,1,1.141,3.212v11.876a.282.282,0,0,0,.253.3h4.86a.282.282,0,0,0,.253-.3V337.58a8.84,8.84,0,0,0-2.2-6.339,7.61,7.61,0,0,0-5.374-2.288Z" transform="translate(-3813.793 -1853.011)" fill="#011111" fill-rule="evenodd"/>
    <path id="Path_14208" data-name="Path 14208" d="M931.39,328.952c-.1,0-.2,0-.295.006a7.166,7.166,0,0,0-6,2.662.276.276,0,0,1-.465,0,6.194,6.194,0,0,0-5.452-2.662,6.764,6.764,0,0,0-5.368,2.155.282.282,0,0,1-.2.087.271.271,0,0,1-.264-.3v-1.1a.289.289,0,0,0-.3-.3h-4.818a.289.289,0,0,0-.3.3v20.328a.289.289,0,0,0,.3.3h4.818a.288.288,0,0,0,.3-.3V338.679a5.119,5.119,0,0,1,1.057-3.508,3.686,3.686,0,0,1,2.736-1.229h.283a3.323,3.323,0,0,1,2.432,1.06,4.417,4.417,0,0,1,.93,2.959v12.172a.283.283,0,0,0,.255.3h4.86a.283.283,0,0,0,.253-.3V338.679a5.119,5.119,0,0,1,1.056-3.508,3.538,3.538,0,0,1,2.724-1.229h.3A3.326,3.326,0,0,1,932.66,335a4.422,4.422,0,0,1,.93,2.959v12.172a.282.282,0,0,0,.254.3h4.86c.169,0,.253-.126.253-.3V337.58a8.949,8.949,0,0,0-2.113-6.3,7.6,7.6,0,0,0-5.454-2.328Z" transform="translate(-3832.261 -1853.011)" fill="#011111" fill-rule="evenodd"/>
    <path id="Path_14209" data-name="Path 14209" d="M980.321,334.116A5.64,5.64,0,0,1,986,339.992a5.868,5.868,0,0,1-1.649,4.227,5.771,5.771,0,0,1-4.027,1.65h-.313a5.528,5.528,0,0,1-3.985-1.65,5.877,5.877,0,0,1,3.989-10.1h.152Zm-1.314-5.155a9.485,9.485,0,0,0-7.042,3.171,11,11,0,0,0-2.959,7.86,11.141,11.141,0,0,0,2.959,7.861,9.631,9.631,0,0,0,7.185,3.17,8.214,8.214,0,0,0,6.339-2.536.257.257,0,0,1,.184-.077.284.284,0,0,1,.281.289v1.437a.289.289,0,0,0,.3.3h4.818a.289.289,0,0,0,.3-.3V329.807a.29.29,0,0,0-.3-.3H986.25a.29.29,0,0,0-.3.3v1.479a.248.248,0,0,1-.256.257.3.3,0,0,1-.209-.088,8.335,8.335,0,0,0-6.339-2.494Z" transform="translate(-3858.76 -1853.015)" fill="#011111" fill-rule="evenodd"/>
    <path id="Path_14210" data-name="Path 14210" d="M1014.22,329.933a.3.3,0,0,0-.254.465l6.889,9.636a.2.2,0,0,1,0,.3l-7.228,10.058a.3.3,0,0,0,.254.465h5.536a.232.232,0,0,0,.211-.126l4.227-5.917a.328.328,0,0,1,.232-.094.332.332,0,0,1,.233.094l4.226,5.917a.232.232,0,0,0,.211.126h5.579a.294.294,0,0,0,.212-.465l-7.228-10.058a.467.467,0,0,1,0-.338l6.889-9.594a.293.293,0,0,0-.211-.465h-5.537a.234.234,0,0,0-.211.127l-3.93,5.452a.239.239,0,0,1-.423,0l-3.931-5.452a.233.233,0,0,0-.211-.127Z" transform="translate(-3878.104 -1853.437)" fill="#011111" fill-rule="evenodd"/>
    <path id="Path_14211" data-name="Path 14211" d="M926.537,370.252l-.846.633-.253,1.437h-1.183l-.042.211.211.676h.888l-.676,4.438c-.254,1.438.168,2.114,1.563,2.114a6.828,6.828,0,0,0,1.86-.3l.127-.845h0a6.762,6.762,0,0,1-1.817.254c-.676-.042-.93-.3-.8-1.226l.718-4.437h2.494l.126-.845h-2.5l.339-2.113Z" transform="translate(-3839.324 -1870.933)" fill-rule="evenodd"/>
    <path id="Path_14212" data-name="Path 14212" d="M937.053,374.483a1.232,1.232,0,0,1,1.248,1.192c0,1.056-1.014,1.31-2.2,1.31h-1.9a2.827,2.827,0,0,1,2.7-2.493A1.215,1.215,0,0,1,937.053,374.483Zm.193-.89a2.005,2.005,0,0,0-.214.011c-1.859.042-3.465,1.437-3.845,3.8-.381,2.324.676,3.8,2.662,3.8a9.366,9.366,0,0,0,2.621-.381l.126-.846h0a9.1,9.1,0,0,1-2.62.339c-1.141-.042-2.029-.634-1.9-2.452h1.9c1.817,0,3.17-.38,3.338-2.113a2.076,2.076,0,0,0-2.068-2.159Z" transform="translate(-3843.186 -1872.383)" fill-rule="evenodd"/>
    <path id="Path_14213" data-name="Path 14213" d="M949.149,373.6a2.255,2.255,0,0,0-.246.009c-2.2,0-3.466,1.479-3.761,3.8s.381,3.8,2.578,3.8a6.027,6.027,0,0,0,2.113-.381l.127-.846h0a4.971,4.971,0,0,1-1.739.307c-.111,0-.222,0-.332-.01-1.648-.085-1.987-.93-1.776-2.917.254-1.944,1.1-2.874,2.663-2.874a7.036,7.036,0,0,1,1.86.253l.126-.846a4.828,4.828,0,0,0-1.613-.295Z" transform="translate(-3848.378 -1872.385)" fill-rule="evenodd"/>
    <path id="Path_14214" data-name="Path 14214" d="M958.353,368.31l-.8.211-1.606,10.186h.93l.761-4.945a5.671,5.671,0,0,1,2.789-1.563h.081c1.231,0,1.267.956,1.1,2.115l-.676,4.438h.93l.676-4.523c.285-1.8-.413-2.92-1.945-2.92h-.168a5.224,5.224,0,0,0-2.578,1.225l.633-4.226Z" transform="translate(-3853.094 -1870.091)" fill-rule="evenodd"/>
    <path id="Path_14215" data-name="Path 14215" d="M974,373.6h-.168A5.6,5.6,0,0,0,971,375l-.3-1.226h-.254L969.309,381h.972l.761-4.945a5.742,5.742,0,0,1,2.79-1.606h.077c1.234,0,1.271,1,1.106,2.115L974.3,381h.972l.676-4.523C976.23,374.728,975.531,373.6,974,373.6Z" transform="translate(-3858.894 -1872.388)" fill-rule="evenodd"/>
    <path id="Path_14216" data-name="Path 14216" d="M986.357,374.456c1.564,0,1.945,1.015,1.691,2.959s-1.057,2.874-2.578,2.874-1.9-.973-1.649-2.917C984.033,375.429,984.836,374.456,986.357,374.456Zm.169-.845c-2.113,0-3.423,1.479-3.677,3.8-.3,2.367.423,3.8,2.494,3.8s3.339-1.48,3.635-3.8c.3-2.363-.378-3.8-2.452-3.8Z" transform="translate(-3864.742 -1872.391)" fill-rule="evenodd"/>
    <path id="Path_14217" data-name="Path 14217" d="M997.253,368.31l-.846.211-1.564,10.186h.93l1.649-10.4Z" transform="translate(-3869.974 -1870.091)" fill-rule="evenodd"/>
    <path id="Path_14218" data-name="Path 14218" d="M1003.06,374.5c1.522,0,1.945.972,1.648,2.916-.254,1.945-1.014,2.917-2.578,2.917-1.521,0-1.859-.972-1.648-2.917C1000.73,375.429,1001.54,374.5,1003.06,374.5Zm.127-.888c-2.071,0-3.381,1.479-3.677,3.8-.254,2.367.423,3.8,2.494,3.8s3.38-1.48,3.677-3.8c.249-2.363-.421-3.8-2.491-3.8Z" transform="translate(-3871.978 -1872.391)" fill-rule="evenodd"/>
    <path id="Path_14219" data-name="Path 14219" d="M1015.51,374.4a8.333,8.333,0,0,1,1.733.169l-.507,3.043c-.3,1.648-1.141,2.621-2.282,2.621-1.225,0-1.86-1.1-1.648-2.789C1013.06,375.714,1013.99,374.573,1015.51,374.4Zm.486-.913c-.205,0-.41.009-.613.027a4.1,4.1,0,0,0-3.593,3.931c-.3,2.325.846,3.676,2.536,3.676h.144a2.58,2.58,0,0,0,1.885-.807h0l-.084.381c-.211,1.437-.761,2.113-2.452,2.155-.135.008-.268.011-.4.011a11.127,11.127,0,0,1-1.84-.18l-.084.846a7.836,7.836,0,0,0,1.81.222c.128,0,.258,0,.388-.01h.106a3.234,3.234,0,0,0,3.444-3.044l1.056-6.889a8.821,8.821,0,0,0-2.3-.316Z" transform="translate(-3877.201 -1872.339)" fill-rule="evenodd"/>
    <path id="Path_14220" data-name="Path 14220" d="M1026.48,368.974a.555.555,0,0,0-.56.554c-.042.3.042.591.465.591a.615.615,0,0,0,.634-.591.437.437,0,0,0-.408-.553.422.422,0,0,0-.057,0,.73.73,0,0,0-.074,0Zm-.18,2.794-.718.211-1.1,7.016h.972l1.1-7.228Z" transform="translate(-3882.836 -1870.379)" fill-rule="evenodd"/>
    <path id="Path_14221" data-name="Path 14221" d="M1033.07,374.483a1.232,1.232,0,0,1,1.249,1.192c0,1.056-1.015,1.31-2.156,1.31h-1.944a2.827,2.827,0,0,1,2.7-2.493,1.2,1.2,0,0,1,.146-.009Zm.194-.89a2,2,0,0,0-.214.011c-1.859.042-3.466,1.437-3.845,3.8-.381,2.324.675,3.8,2.662,3.8a9.357,9.357,0,0,0,2.62-.381l.127-.846h0a9.111,9.111,0,0,1-2.62.339c-1.141-.042-2.029-.634-1.9-2.452h1.9c1.817,0,3.169-.38,3.339-2.113a2.077,2.077,0,0,0-2.073-2.159Z" transform="translate(-3884.852 -1872.383)" fill-rule="evenodd"/>
    <path id="Path_14222" data-name="Path 14222" d="M1044.28,373.612c-1.648,0-2.873.676-3.085,1.986-.254,1.395,1.056,1.818,2.239,2.029,1.057.169,2.029.423,1.9,1.268-.168.972-.887,1.352-2.325,1.437a9.8,9.8,0,0,1-2.2-.3l-.127.888a7.666,7.666,0,0,0,2.2.3c1.986,0,3.17-.8,3.424-2.41.211-1.395-.888-1.817-2.282-2.113-.845-.126-2.029-.254-1.9-1.1.126-.76.887-1.1,2.028-1.1a11.918,11.918,0,0,1,2.071.211l.127-.845A8.668,8.668,0,0,0,1044.28,373.612Z" transform="translate(-3889.867 -1872.391)" fill-rule="evenodd"/>
  </g>
</svg>
